<svg xmlns="http://www.w3.org/2000/svg" viewBox="0 0 105 31">
  <path fill="#FFF" fill-rule="evenodd" d="M0 15.5C0 6.94 6.732 0 15.036 0 23.339 0 30.07 6.94 30.07 15.5c0 8.56-6.732 15.5-15.035 15.5S0 24.06 0 15.5zm11.006-3.479c1.375-.21 2.646-.751 3.936-1.243 1.048-.4 2.096-.813 3.172-1.121 1.844-.528 3.625-.387 5.257.747.302.209.46.48.459.855-.003 1.31-.002 2.62-.002 3.932v4.687c0 .339-.122.412-.41.23-1.248-.791-2.61-1.058-4.055-.92-.99.097-1.947.36-2.887.683-1.075.369-2.143.756-3.22 1.115-.97.322-1.96.555-2.984.6-1.315.057-2.536-.256-3.653-.97-.267-.171-.375-.431-.374-.751.002-1.559.002-3.116.002-4.674v-2.177c0-.59-.006-1.179.004-1.768.002-.102.041-.242.113-.29.054-.038.2.016.28.07.61.414 1.26.736 1.977.913a5.65 5.65 0 0 0 1.363.163c.34 0 .68-.029 1.022-.08zm43.49 2.273c.08-3.645 2.965-6.576 6.52-6.576 3.556 0 6.44 2.93 6.52 6.576h.008v9.088H64.28v-3.36h-6.53v3.36h-3.26v-9.088h.007zm3.256.133v2.231h6.529v-2.23h-.002c-.01-1.85-1.466-3.346-3.263-3.346-1.796 0-3.253 1.496-3.263 3.345h-.001zm34.2-.133c.08-3.645 2.966-6.576 6.52-6.576 3.555 0 6.44 2.93 6.52 6.576H105v9.088h-3.264v-3.36h-6.528v3.36h-3.263v-9.088h.008zm3.256.133v2.231h6.528v-2.23c-.01-1.85-1.467-3.346-3.264-3.346-1.796 0-3.252 1.496-3.262 3.345h-.002zm-21.973-.133c.08-3.645 2.964-6.576 6.52-6.576 3.554 0 6.44 2.93 6.52 6.576h.007v9.088h-3.264v-8.955c-.011-1.849-1.467-3.345-3.264-3.345-1.796 0-3.252 1.496-3.263 3.345h-.001v8.955h-3.263v-9.088h.008zM41.167 7.72c.02 0 .038-.003.058-.003l.06.003h.246l-.042.01c4.073.145 7.333 3.585 7.333 7.819 0 4.241-3.271 7.686-7.354 7.82l.063.015h-5.763V7.721h5.399zm-2.143 3.363v.625l.007-.002v7.68l-.007-.001v.624l2.48-.006c2.263-.15 4.055-2.084 4.055-4.454 0-2.376-1.801-4.314-4.073-4.455l-2.462-.01z"/>
</svg>
